<svg width="140" height="140" viewBox="0 0 140 140" fill="none" xmlns="http://www.w3.org/2000/svg">
<rect width="140" height="140" rx="30" fill="#02192B"/>
<g clip-path="url(#clip0_3672_4338)">
<path d="M12.9998 58.4635C13.1566 58.3508 13.2995 58.2028 13.5034 58.1711C13.7852 58.1272 15.2326 58.1219 15.4867 58.1797C15.9012 58.2743 15.8915 59.1149 16.0283 59.114C18.2452 57.1754 21.7151 57.2892 23.2046 60.062C24.1253 61.7762 24.1668 64.3972 23.5538 66.2235C22.6608 68.8834 20.0891 70.2405 17.4292 69.1401C17.0298 68.975 16.6898 68.7004 16.293 68.537V73.4848C16.293 73.5142 16.1253 73.6518 16.0715 73.6764C15.8174 73.7926 14.0884 73.7917 13.7346 73.7517C13.4225 73.7161 13.0975 73.5954 13.0575 73.2491C12.9748 72.5339 13.1178 71.6633 13.0628 70.93L12.9995 70.7295V58.4635H12.9998ZM17.9866 60.2583C17.6519 60.2907 16.405 60.5907 16.3053 60.9347L16.2965 66.311C16.3653 66.7534 17.4692 67.0197 17.8525 67.0541C20.5695 67.2987 20.8465 65.1513 20.7065 62.9345C20.5965 61.1939 19.8535 60.078 17.9866 60.2583Z" fill="#00ACF0"/>
<path d="M125.978 62.8482C126.006 63.3713 126.009 64.045 125.978 64.5665C125.771 68.1524 123.066 70.0012 119.605 69.5363C113.618 68.7321 113.558 59.2413 118.92 57.9591C122.571 57.0861 125.778 58.9545 125.978 62.8482ZM120.201 60.3156C118.411 60.5623 118.238 62.8571 118.333 64.2994C118.433 65.8036 119.021 67.2534 120.773 67.1134C122.064 67.0102 122.647 65.833 122.743 64.6543C122.892 62.8248 122.731 59.9669 120.201 60.3153V60.3156Z" fill="white"/>
<path d="M87.8096 53.0119C88.9756 53.172 89.5841 54.2484 89.2241 55.3556C88.7403 56.8442 86.1886 56.835 85.7336 55.3701C85.3624 54.1751 86.0477 53.1326 87.2802 53.0119C87.4172 52.9985 87.6775 52.9938 87.8096 53.0119Z" fill="white"/>
<path d="M40.9793 74.8299C41.3019 74.7987 43.3259 76.1171 43.778 76.3685C58.9985 84.8269 77.3039 85.7227 93.1482 78.3277C94.351 78.3443 94.5827 79.3578 93.7212 80.1522C92.5485 81.2336 90.4469 82.4817 89.0247 83.242C73.5433 91.5183 54.1296 88.7938 41.4925 76.6562C41.3278 76.4981 40.6251 75.8321 40.5684 75.6916C40.4289 75.3476 40.5695 74.8693 40.979 74.8299H40.9793Z" fill="#00ACF0"/>
<path d="M47.1831 69.1748C47.1137 69.1069 47.059 68.7994 47.0499 68.6871C46.8587 66.3842 47.3058 63.6604 47.046 61.4026C46.8854 60.0063 45.4418 60.2091 44.4276 60.4701C44.2202 60.5234 43.4746 60.7414 43.4175 60.9335L43.3414 69.0933C43.3025 69.163 43.2393 69.1882 43.1711 69.2181C42.8502 69.3593 41.2647 69.3447 40.8482 69.3062C40.4247 69.2668 40.2661 69.1914 40.227 68.747C40.4209 65.5107 39.98 61.9894 40.2276 58.7867C40.2488 58.5127 40.2744 58.2076 40.6094 58.164C40.9135 58.1245 42.331 58.1192 42.5995 58.1797C43.014 58.2731 43.0781 59.1084 43.1428 59.1161C43.7938 58.8261 44.395 58.4128 45.0812 58.1658C46.7122 57.5789 48.7956 57.5647 49.8456 59.1683C52.209 57.4182 56.7747 56.7789 57.05 60.8042C57.2294 63.4309 56.9491 66.2988 57.0114 68.9415C56.9491 69.12 56.8682 69.2249 56.6711 69.2505C56.222 69.3089 54.701 69.3101 54.2539 69.2505C53.9792 69.214 53.895 68.9984 53.8718 68.7467C53.6618 66.4557 54.1286 63.7357 53.8583 61.472C53.7024 60.1667 52.7429 60.2044 51.6864 60.3767C51.4075 60.422 51.1096 60.4976 50.8445 60.5949C50.6407 60.6696 50.2892 60.7773 50.2413 60.9943L50.1977 69.0684C50.1113 69.2659 49.6474 69.2943 49.4371 69.3092C49.0894 69.3338 47.3678 69.3545 47.1837 69.1745L47.1831 69.1748Z" fill="#00ACF0"/>
<path d="M98.6308 53.4563C98.6617 53.3099 98.8676 53.1574 99.0167 53.134C99.4712 53.0626 100.824 53.083 101.31 53.1278C101.536 53.1486 101.73 53.2156 101.805 53.4581L101.777 69.0103C101.687 69.1277 101.57 69.2211 101.421 69.2448C101.066 69.3017 99.7347 69.2958 99.3703 69.2442C98.8852 69.1757 98.9864 68.8128 98.8214 68.494C98.7944 68.4418 98.8352 68.3959 98.7191 68.4166C98.6123 68.4356 97.9293 68.9575 97.7125 69.063C95.6453 70.0709 93.1696 69.4464 91.9609 67.4654C89.4787 63.397 91.9533 55.8629 97.5716 58.1388C97.9296 58.2838 98.2667 58.5474 98.6311 58.6414V53.4563H98.6308ZM98.5549 66.5052C98.7811 66.2289 98.5611 61.4901 98.6017 60.7737C97.0981 59.9241 95.0947 59.8453 94.5302 61.8275C94.0264 63.5969 94.0567 66.9032 96.4848 67.0538C96.9407 67.082 98.2611 66.8637 98.5546 66.5049L98.5549 66.5052Z" fill="white"/>
<path d="M106.806 64.5668C106.881 66.9186 108.601 67.3115 110.601 67.1763C111.289 67.1297 111.976 66.8275 112.605 66.765C113.01 66.7246 113.16 66.7884 113.211 67.2089C113.262 67.6293 113.3 68.6298 112.951 68.8925C112.491 69.2395 110.732 69.5683 110.13 69.606C107.264 69.7848 104.855 68.8881 104.116 65.8831C102.986 61.2843 105.59 57.0301 110.64 58.0068C112.838 58.432 114.261 60.4493 113.479 62.6697C112.639 65.0573 108.82 64.9929 106.805 64.5668H106.806ZM106.872 62.6032C108.204 62.7936 110.924 63.3229 110.687 61.1592C110.582 60.1967 109.513 60.0348 108.723 60.1287C107.544 60.269 106.89 61.5031 106.872 62.6032Z" fill="white"/>
<path d="M61.8144 64.5665C61.7238 65.5463 62.2492 66.5236 63.1504 66.9236C63.8019 67.213 64.8961 67.2243 65.61 67.1763C66.3047 67.1294 67.0401 66.8077 67.6748 66.7635C67.781 66.7561 67.9193 66.7543 68.0096 66.8133C68.2502 66.9705 68.1972 68.3879 68.0778 68.6553C67.8625 69.1381 66.5624 69.3797 66.0594 69.466C62.9989 69.9909 59.9337 69.2697 59.0895 65.919C58.2992 62.7821 59.2451 58.8786 62.743 58.0661C65.5509 57.4138 68.852 58.4264 68.5796 61.8726C68.3352 64.9663 64.0722 65.0321 61.8144 64.5665ZM63.8007 60.1388C62.8592 60.2518 62.2447 60.9145 61.9738 61.7943C61.9288 61.9405 61.7468 62.5626 61.87 62.6436C61.9206 62.6768 62.7668 62.7797 62.9027 62.788C63.8587 62.847 65.5891 62.9297 65.6979 61.6357C65.8009 60.4122 64.8723 60.0101 63.8007 60.1385V60.1388Z" fill="#00ACF0"/>
<path d="M78.988 66.1073C79.1389 66.1307 79.0795 66.0936 79.111 66.0237C79.1577 65.9196 79.1998 65.7402 79.2386 65.6192C79.9546 63.3923 80.4593 60.8716 81.2647 58.7129C81.3667 58.4398 81.4526 58.2088 81.7785 58.164C82.3086 58.0916 83.6948 58.1168 84.2537 58.164C84.6602 58.1984 84.6858 58.3532 84.5931 58.7481C83.2883 61.9387 82.25 65.2563 80.9137 68.4323C80.7481 68.8261 80.694 69.1977 80.1969 69.2507C79.7407 69.2994 78.3374 69.3106 77.9032 69.243C77.6438 69.2027 77.4682 69.0129 77.3511 68.7917L73.5747 58.9089C73.447 58.4925 73.3482 58.1643 73.9003 58.1071C74.4574 58.0495 75.6357 58.0519 76.1961 58.1047C76.4281 58.1266 76.5726 58.1512 76.7193 58.3475C76.9311 58.6307 77.3467 60.3022 77.4873 60.7734C78.015 62.5416 78.5156 64.3222 78.9874 66.1064L78.988 66.1073Z" fill="white"/>
<path d="M32.9817 60.8778C32.7534 61.0874 31.6386 60.927 31.2583 60.9492C30.9368 60.9679 29.3873 61.2401 29.2267 61.4504C29.1849 61.5049 29.1696 61.5627 29.1705 61.6309L29.1443 68.9536C29.0693 69.1778 29.0261 69.2223 28.792 69.2481C28.2752 69.3047 26.82 69.3175 26.3177 69.251C26.1779 69.2327 26.1056 69.1876 26.0279 69.069L25.9935 58.5489C25.975 58.3935 26.0697 58.2316 26.2174 58.1818C26.5503 58.0694 28.1051 58.054 28.4052 58.2002C28.7625 58.3739 28.8534 59.2522 28.939 59.6187C28.9555 59.6893 28.8955 59.7258 29.0252 59.7074C29.7458 58.9637 30.6644 58.175 31.7375 58.0552C32.1981 58.0039 33.0464 57.9016 33.1146 58.4919C33.1655 58.9332 33.1637 60.0656 33.1149 60.5092C33.1052 60.5984 33.0393 60.8247 32.9814 60.8781L32.9817 60.8778Z" fill="#00ACF0"/>
<path d="M94.737 74.1244C95.7041 74.1069 97.864 74.265 98.6505 74.8278C98.99 75.0706 99.07 75.5202 99.1009 75.9148C99.3179 78.6841 97.4131 84.0936 95.1315 85.7796C94.7403 86.0687 94.3102 86.0498 94.3505 85.4712C94.8932 83.7766 95.605 82.1178 96.0036 80.3775C96.2468 79.3151 96.7663 77.3761 95.4556 76.9209C93.3063 76.1746 90.7661 77.0315 88.6048 77.0737C87.7636 77.0903 87.9945 76.4317 88.4613 76.0376C89.9534 74.778 92.8278 74.1591 94.7367 74.1244H94.737Z" fill="#00ACF0"/>
<path d="M86.0011 69.1731C85.927 69.1028 85.8649 68.859 85.8652 68.7472L85.8823 58.5068C85.9564 58.3048 85.967 58.2055 86.195 58.1726C86.9838 58.0593 88.0113 58.2349 88.8257 58.1794C89.0319 58.2799 89.1002 58.5124 89.1049 58.7277L89.0772 68.8964C89.0487 69.0177 88.9504 69.1997 88.8257 69.2356C88.7257 69.2644 88.2772 69.2973 88.1316 69.3065C87.8295 69.3255 86.1544 69.3189 86.0005 69.1731H86.0011Z" fill="white"/>
<path d="M34.9234 58.1236C35.3834 58.0549 36.727 58.054 37.1856 58.1236C37.5497 58.1791 37.5562 58.2793 37.6271 58.6268C37.4712 61.8347 37.8871 65.3342 37.6445 68.5091C37.6197 68.8323 37.6103 69.1665 37.2459 69.2332C36.8791 69.3003 35.2255 69.3038 34.8522 69.2442C34.2013 69.1404 34.4654 68.1678 34.4695 67.7394C34.4981 64.6771 34.4433 61.6131 34.4654 58.5506C34.5007 58.2417 34.6384 58.1658 34.9234 58.1233V58.1236Z" fill="#00ACF0"/>
<path d="M35.5697 53.0866C36.7127 52.9214 37.8075 53.3407 37.8796 54.6392C37.961 56.1049 36.5698 56.7596 35.3026 56.3466C33.6981 55.8238 33.899 53.328 35.5694 53.0866H35.5697Z" fill="#00ACF0"/>
</g>
<defs>
<clipPath id="clip0_3672_4338">
<rect width="113" height="35" fill="white" transform="translate(13 53)"/>
</clipPath>
</defs>
</svg>
