<svg xmlns="http://www.w3.org/2000/svg" viewBox="0 0 128 128" width="100%" height="100%">
  <defs>
    <linearGradient id="favDropGrad" x1="0%" y1="0%" x2="100%" y2="100%">
      <stop offset="0%" stop-color="#34D399"/>
      <stop offset="40%" stop-color="#10B981"/>
      <stop offset="100%" stop-color="#059669"/>
    </linearGradient>
    <linearGradient id="favBorderGrad" x1="0%" y1="0%" x2="100%" y2="100%">
      <stop offset="0%" stop-color="#34D399" stop-opacity="0.9"/>
      <stop offset="100%" stop-color="#059669" stop-opacity="0.3"/>
    </linearGradient>
  </defs>
  <!-- Transparent Squircle Icon Frame -->
  <rect x="6" y="6" width="116" height="116" rx="28" fill="#0C1523" stroke="url(#favBorderGrad)" stroke-width="4"/>
  
  <!-- Droplet Mark -->
  <path d="M 64 24 C 64 24, 98 64, 98 80 A 34 34 0 1 1 30 80 C 30 64, 64 24, 64 24 Z" fill="url(#favDropGrad)"/>

  <!-- Tech Envelope Inside Droplet -->
  <g transform="translate(42, 67)">
    <rect x="0" y="0" width="44" height="29" rx="5" fill="#0B101B" opacity="0.95"/>
    <path d="M 3 3 L 22 17 L 41 3" fill="none" stroke="#34D399" stroke-width="2.5" stroke-linecap="round" stroke-linejoin="round"/>
    <circle cx="22" cy="21" r="2.5" fill="#34D399"/>
  </g>

  <!-- 4 Verification OTP Code Dots -->
  <circle cx="49" cy="55" r="2.8" fill="#FFFFFF"/>
  <circle cx="59" cy="55" r="2.8" fill="#FFFFFF"/>
  <circle cx="69" cy="55" r="2.8" fill="#FFFFFF"/>
  <circle cx="79" cy="55" r="2.8" fill="#FFFFFF"/>
</svg>
